<?xml version="1.0" standalone="no"?>
<svg viewBox="0 0 200 200" xmlns="http://www.w3.org/2000/svg">
  <path fill="#FF0066" d="M50.5,-62.1C65.8,-58.3,78.9,-44.1,81.5,-28.3C84.1,-12.5,76.3,4.9,70.1,22.5C64,40.2,59.6,58.1,48.2,63.8C36.8,69.5,18.4,62.9,0.4,62.4C-17.7,61.9,-35.4,67.5,-43.7,60.8C-52.1,54.1,-51.2,35.2,-55.8,18.7C-60.4,2.1,-70.5,-12,-71.8,-28.1C-73.1,-44.1,-65.6,-62,-52.1,-66.4C-38.7,-70.7,-19.4,-61.5,-0.9,-60.3C17.6,-59.1,35.2,-65.8,50.5,-62.1Z" transform="translate(100 100)" />
</svg>
